<svg xmlns="http://www.w3.org/2000/svg" version="1.1" xmlns:xlink="http://www.w3.org/1999/xlink" viewBox="0 0 200 200" width="200" height="200"><rect width="200" height="200" fill="url('#gradient')"></rect><defs><linearGradient id="gradient" gradientTransform="rotate(45 0.5 0.5)"><stop offset="0%" stop-color="#7855ff"></stop><stop offset="100%" stop-color="#7855ff"></stop></linearGradient></defs><g><g fill="#000000" transform="matrix(8.548820326678765,0,0,8.548820326678765,51.95551074079074,145.9935135964257)" stroke="#f5e370" stroke-width="0.1"><path d="M0.86-10.57L3.95-10.57L4.05-9.33Q5.15-10.76 7.07-10.76L7.07-10.76Q8.72-10.76 9.54-9.78Q10.35-8.79 10.38-6.81L10.38-6.81L10.38 0L7.08 0L7.08-6.67Q7.08-7.47 6.76-7.85Q6.44-8.22 5.59-8.22L5.59-8.22Q4.62-8.22 4.15-7.46L4.15-7.46L4.15 0L0.86 0L0.86-10.57Z"></path></g></g></svg>